<svg xmlns="http://www.w3.org/2000/svg" version="1.1" xmlns:xlink="http://www.w3.org/1999/xlink" xmlns:svgjs="http://svgjs.com/svgjs" width="1440" height="2000" preserveAspectRatio="none" viewBox="0 0 1440 2000"><g mask="url(&quot;#SvgjsMask1058&quot;)" fill="none"><rect width="1440" height="2000" x="0" y="0" fill="rgba(26, 26, 29, 1)"></rect><path d="M0,822.051C152.722,836.908,289.761,734.457,415.355,646.305C536.868,561.017,644.089,457.286,709.543,324.037C776.216,188.305,843.585,27.469,788.518,-113.372C733.901,-253.062,545.759,-275.712,435.355,-377.237C342.19,-462.91,306.315,-602.138,193.856,-660.213C71.347,-723.478,-80.629,-761.545,-208.378,-709.67C-334.55,-658.436,-372.641,-502.89,-456.944,-395.944C-536.375,-295.178,-648.063,-220.543,-689.631,-99.154C-735.936,36.069,-764.507,192.044,-702.369,320.761C-640.482,448.958,-482.345,487.551,-366.476,570.248C-243.342,658.13,-150.568,807.404,0,822.051" fill="#151517"></path><path d="M1440 2793.407C1605.132 2782.016 1788.519 2848.324 1924.966 2754.621 2060.999 2661.202 2077.064 2471.817 2133.889 2316.888 2186.181 2174.319 2253.6549999999997 2035.938 2244.1530000000002 1884.38 2234.183 1725.363 2196.0280000000002 1554.4859999999999 2079.2889999999998 1446.0529999999999 1965.279 1340.155 1792.011 1350.55 1638.997 1322.28 1502.17 1297.001 1369.547 1273.223 1231.347 1289.392 1070.491 1308.212 897.042 1317.4270000000001 774.586 1423.415 646.088 1534.632 577.373 1704.326 557.008 1873.045 536.886 2039.745 603.704 2197.826 662.108 2355.252 724.927 2524.5789999999997 752.681 2736 910.04 2824.634 1067.411 2913.275 1259.81 2805.837 1440 2793.407" fill="#1f1f23"></path></g><defs><mask id="SvgjsMask1058"><rect width="1440" height="2000" fill="#ffffff"></rect></mask></defs></svg>